Coordinates
version=1
nRows=38
nColumns=12
inDegrees=yes

Units are S.I. units (second, meters, Newtons, ...)
Angles are in degrees

endheader
time	SC_y	SC_z	SC_x	AC_y	AC_z	AC_x	GH_y	GH_z	GH_yy	EL_x	PS_y
       0.0              -12.72          22.93           25.6          40.26         -1.098          7.892          167.1          74.45         -113.4          138.8          17.42
   0.03276              -12.73          22.92           25.6          40.26         -1.098          7.888          167.0          74.45         -113.4          138.8          17.43
   0.06553              -12.73          22.92           25.6          40.26         -1.098          7.884          167.0          74.45         -113.4          138.8          17.43
   0.09829              -12.74          22.92           25.6          40.25         -1.098           7.88          167.0          74.46         -113.4          138.8          17.44
    0.1311              -12.74          22.91           25.6          40.25         -1.098          7.875          166.9          74.46         -113.4          138.7          17.45
    0.1638              -12.75          22.91           25.6          40.25         -1.098          7.871          166.9          74.46         -113.4          138.7          17.45
    0.1966              -12.75           22.9           25.6          40.25         -1.098          7.866          166.8          74.46         -113.4          138.7          17.46
    0.2294              -12.76           22.9          25.61          40.25         -1.098           7.86          166.8          74.46         -113.4          138.7          17.47
    0.2621              -12.77          22.89          25.61          40.25         -1.097          7.854          166.7          74.46         -113.4          138.7          17.48
    0.2949              -12.78          22.89          25.61          40.24         -1.097          7.848          166.7          74.47         -113.4          138.7          17.49
    0.3276              -12.78          22.88          25.61          40.24         -1.097          7.841          166.6          74.47         -113.4          138.7           17.5
    0.3604              -12.79          22.87          25.61          40.24         -1.097          7.834          166.6          74.47         -113.4          138.7          17.51
    0.3932               -12.8          22.87          25.62          40.24         -1.097          7.826          166.5          74.47         -113.4          138.7          17.52
    0.4259              -12.81          22.86          25.62          40.24         -1.096          7.818          166.4          74.48         -113.4          138.7          17.53
    0.4587              -12.82          22.85          25.62          40.23         -1.096          7.809          166.4          74.48         -113.4          138.7          17.54
    0.4915              -12.83          22.84          25.63          40.23         -1.096          7.799          166.3          74.48         -113.5          138.6          17.56
    0.5242              -12.85          22.83          25.63          40.23         -1.096          7.788          166.2          74.49         -113.5          138.6          17.57
     0.557              -12.86          22.82          25.63          40.22         -1.095          7.776          166.1          74.49         -113.5          138.6          17.59
    0.5898              -12.88           22.8          25.64          40.22         -1.095          7.763          166.0           74.5         -113.5          138.6          17.61
    0.6225              -12.89          22.79          25.64          40.21         -1.094          7.749          165.9           74.5         -113.5          138.6          17.63
    0.6553              -12.91          22.78          25.65          40.21         -1.094          7.734          165.7          74.51         -113.5          138.5          17.65
    0.6881              -12.93          22.76          25.65           40.2         -1.094          7.717          165.6          74.51         -113.5          138.5          17.67
    0.7208              -12.96          22.74          25.66           40.2         -1.093          7.698          165.4          74.52         -113.5          138.5           17.7
    0.7536              -12.98          22.72          25.66          40.19         -1.092          7.678          165.3          74.53         -113.5          138.5          17.73
    0.7864              -13.01           22.7          25.67          40.19         -1.092          7.655          165.1          74.54         -113.5          138.4          17.76
    0.8191              -13.04          22.68          25.68          40.18         -1.091          7.629          164.9          74.54         -113.5          138.4           17.8
    0.8519              -13.08          22.65          25.69          40.17          -1.09            7.6          164.6          74.55         -113.6          138.4          17.84
    0.8847              -13.11          22.62           25.7          40.16         -1.089          7.568          164.3          74.57         -113.6          138.3          17.89
    0.9174              -13.16          22.58          25.71          40.15         -1.088          7.531          164.0          74.58         -113.6          138.3          17.94
    0.9502              -13.21          22.54          25.72          40.14         -1.087           7.49          163.7          74.59         -113.6          138.2           18.0
    0.9829              -13.27           22.5          25.73          40.12         -1.086          7.442          163.3          74.61         -113.6          138.1          18.06
     1.016              -13.33          22.45          25.75           40.1         -1.084          7.388          162.8          74.63         -113.7          138.1          18.14
     1.048              -13.41          22.38          25.77          40.08         -1.083          7.325          162.3          74.65         -113.7          138.0          18.23
     1.081               -13.5          22.31          25.79          40.06         -1.081          7.252          161.7          74.68         -113.7          137.9          18.34
     1.114               -13.6          22.23          25.82          40.04         -1.078          7.166          161.0          74.71         -113.8          137.7          18.46
     1.147              -13.72          22.14          25.85          40.01         -1.076          7.065          160.1          74.74         -113.8          137.6           18.6
      1.18              -13.87          22.02          25.89          39.97         -1.072          6.946          159.1          74.79         -113.9          137.4          18.77
     1.212              -14.04          21.88          25.93          39.92         -1.068          6.802          157.9          74.84         -114.0          137.2          18.98
